<svg width="152" height="152" viewBox="0 0 152 152" fill="none" xmlns="http://www.w3.org/2000/svg">
<path d="M28.2777 115.747C47.0547 115.273 59.237 129.576 59.237 129.576C57.396 135.438 56.2166 139.824 56.2166 139.824C45.9472 137.883 34.2682 137.099 24.6532 134.596C15.9731 132.338 15.067 120.609 16.0234 115.683C16.9799 110.756 21.9061 109.606 26.7531 108.002C32.2834 106.168 42.8261 106.024 50.3843 105.996C58.3525 105.996 68.8232 106.715 74.2456 107.937C74.2456 107.937 85.752 107.427 94.3026 107.571C99.2935 106.729 96.2875 114.863 88.3625 121.795C84.4485 125.262 79.8148 127.817 74.7948 129.278C69.7748 130.74 64.4934 131.07 59.3305 130.245H59.2658" fill="#263238"/>
<path d="M118.587 115.747C99.8103 115.273 83.1477 129.576 83.1477 129.576C84.9887 135.438 86.1681 139.824 86.1681 139.824C96.4375 137.883 112.597 137.099 122.212 134.596C130.899 132.338 131.798 120.609 130.842 115.683C129.885 110.756 124.959 109.606 120.112 108.002C114.582 106.168 104.039 106.024 96.4807 105.996C88.5125 105.996 78.0417 106.715 72.6194 107.937C72.6194 107.937 61.113 107.427 52.5695 107.571C47.5715 106.729 50.5775 114.863 58.5025 121.795C62.4124 125.257 67.0401 127.809 72.0534 129.27C77.0667 130.731 82.3413 131.064 87.4985 130.245H87.5632" fill="#263238"/>
<path d="M59.3233 64.8043C57.698 70.3466 55.984 75.86 54.1814 81.3447C53.2824 84.0919 52.3691 86.8318 51.4198 89.5646C50.4706 92.2973 49.55 95.0085 48.5001 97.77L48.3706 98.1152L48.198 98.5323C48.083 98.8056 47.9535 99.0645 47.8241 99.3234C47.5632 99.8045 47.2751 100.27 46.9611 100.719C46.3867 101.522 45.7339 102.266 45.0122 102.941C43.7456 104.115 42.3597 105.154 40.8771 106.04C38.1906 107.627 35.3587 108.954 32.4199 110.003C26.8118 112.025 21.019 113.491 15.1245 114.382L14.0242 109.722C16.6419 108.787 19.3387 107.795 21.9348 106.716C24.5309 105.638 27.1055 104.559 29.5577 103.307C31.9511 102.157 34.2436 100.807 36.4112 99.2731C38.4392 97.8348 40.0573 96.0297 40.2227 94.9582L45.0266 78.4681C46.6519 72.9523 48.3203 67.4364 50.0606 61.9277L59.3233 64.8043Z" fill="#CE7A63"/>
<path d="M15.9014 109.953L7.12061 107.723L11.306 116.166C11.306 116.166 17.2606 116.425 19.2167 113.11L15.9014 109.953Z" fill="#CE7A63"/>
<path d="M78.0644 4.84844C74.9145 2.56874 69.7367 0.655806 67.6511 4.12929C65.5656 7.60277 63.7677 14.9165 60.2943 16.6856C56.8208 18.4547 52.6857 25.5527 54.9582 31.7877C57.2307 38.0227 48.2485 36.3399 47.7667 45.8111C47.2849 55.2822 60.7689 60.0718 69.2836 55.3973C77.7983 50.7229 83.7888 26.3294 83.2494 16.6856C82.7101 7.04183 78.0644 4.84844 78.0644 4.84844Z" fill="#263238"/>
<path d="M74.1079 4.43095C74.1079 4.43095 78.7249 -2.58074 87.2252 1.03657C97.1494 5.25797 94.0355 9.81017 95.8549 19.4324C97.6744 29.0546 108.764 30.7733 108.26 44.1638C107.404 66.968 87.2252 62.7394 81.6518 56.6842C76.0784 50.629 82.2487 28.4001 82.2487 28.4001L74.1079 4.43095Z" fill="#263238"/>
<path d="M0 111.038L3.89058 117.92L11.2978 116.273L7.10517 107.831L0 111.038Z" fill="#CE7A63"/>
<path d="M53.2177 51.7576C49.399 52.7357 46.7454 68.4562 46.7454 68.4562L57.2737 75.6477C57.2737 75.6477 67.3417 59.7833 64.4651 55.5835C61.3512 51.1751 58.7983 50.3409 53.2177 51.7576Z" fill="white"/>
<path opacity="0.2" d="M52.8721 57.4756L61.056 59.3741L61.8399 67.3711C60.4497 70.1864 58.9183 72.9298 57.2518 75.5909L50.8657 71.276C51.139 67.6012 51.8366 59.9638 52.8721 57.4756Z" fill="black"/>
<path d="M53.2173 51.7581C53.2173 51.7581 48.8305 53.2971 57.6472 107.722H95.309C94.6762 92.3972 94.6546 82.9476 101.983 51.492C96.7097 50.4018 91.3643 49.6976 85.9889 49.3849C79.6532 49.0757 74.4825 48.8743 68.8947 49.3849C61.545 50.0537 53.2173 51.7581 53.2173 51.7581Z" fill="white"/>
<path opacity="0.2" d="M93.1217 66.0974L97.9831 70.2325C96.9403 75.734 96.25 80.3006 95.8257 84.3925C94.8908 80.3078 92.5823 69.2185 93.1217 66.0974Z" fill="black"/>
<path d="M84.2983 30.1333C83.2196 35.6348 82.1409 45.71 85.9883 49.3849C85.9883 49.3849 82.3926 57.6263 72.8639 57.6263C63.3352 57.6263 68.8942 49.3849 68.8942 49.3849C75.0285 47.9466 74.8703 43.3656 73.7988 39.0939L84.2983 30.1333Z" fill="#CE7A63"/>
<path d="M85.9882 49.3849C79.6525 49.0757 74.4818 48.8743 68.8869 49.3849C66.2404 49.6223 63.4717 49.9962 61.0122 50.3774C59.3869 53.3187 52.9362 66.5438 68.7646 66.5438C85.3625 66.5438 92.2807 52.0026 93.1437 50.0034C90.9215 49.7445 88.4621 49.5072 85.9882 49.3849Z" fill="#CE7A63"/>
<path opacity="0.2" d="M80.0198 33.7866L73.8064 39.0867C74.0665 40.0818 74.2422 41.097 74.3314 42.1216C76.6758 41.7836 79.8976 39.209 80.1421 36.7567C80.2814 35.7674 80.2399 34.7611 80.0198 33.7866Z" fill="black"/>
<path d="M91.5482 19.7338C89.8223 28.7735 89.2685 32.6353 84.0691 36.7129C76.2448 42.8544 65.5223 38.7481 64.5227 29.3704C63.6237 20.9348 66.6154 7.57301 76.029 5.09914C78.0935 4.55055 80.2638 4.538 82.3344 5.06268C84.405 5.58736 86.3075 6.6319 87.8615 8.0974C89.4156 9.56289 90.5699 11.4008 91.215 13.4371C91.8602 15.4735 91.9749 17.6408 91.5482 19.7338Z" fill="#CE7A63"/>
<path d="M75.4381 4.12884C72.1947 5.94828 74.345 9.16287 80.1988 11.4426C86.0527 13.7223 86.4051 14.1394 85.4486 18.8714C84.4921 23.6033 93.0212 27.983 93.1291 23.0928C93.237 18.2025 94.9773 8.92555 90.4251 6.34381C85.8729 3.76208 78.8684 2.23748 75.4381 4.12884Z" fill="#263238"/>
<path d="M74.949 6.40869C72.0724 7.33639 65.5354 14.4344 66.0172 12.0971C66.499 9.75992 67.7216 6.52375 71.1735 5.32997C72.8046 4.68318 74.5186 4.2692 76.265 4.10022L74.949 6.40869Z" fill="#263238"/>
<path d="M93.2588 27.3286C92.4119 28.8877 91.0026 30.0655 89.3179 30.6223C87.0813 31.3414 85.9523 29.4069 86.5636 27.2926C87.1173 25.3869 88.9367 22.7188 91.1877 22.9202C93.4386 23.1215 94.2728 25.4156 93.2588 27.3286Z" fill="#CE7A63"/>
<path d="M57.2368 138.754L60.6815 128.923C60.811 128.563 62.2996 129.505 62.6664 129.577C62.6664 129.577 68.0672 128.858 70.2174 129.462C72.3677 130.066 72.2742 131.447 71.8786 132.914C70.9653 136.323 69.4911 136.97 68.5418 141.486C67.9593 144.241 67.4846 146.779 64.4714 149.397C61.5948 151.892 58.8333 151.741 59.9696 148.678C62.7023 141.371 61.4078 142.457 59.6819 139.739C59.3655 139.279 57.0498 139.271 57.2368 138.754Z" fill="#CE7A63"/>
<path d="M84.3059 138.754L80.854 128.923C80.7246 128.563 79.2359 129.505 78.8692 129.577C78.8692 129.577 73.4684 128.858 71.3181 129.462C69.1679 130.066 69.2614 131.447 69.6569 132.914C70.5702 136.323 72.0445 136.97 72.9937 141.486C73.5763 144.241 74.0509 146.779 77.0641 149.397C79.9407 151.892 82.7022 151.741 81.566 148.678C78.8332 141.371 80.1277 142.457 81.8536 139.739C82.1701 139.279 84.4857 139.271 84.3059 138.754Z" fill="#CE7A63"/>
<path d="M58.4168 141.098L61.8903 128.06L57.3165 126.169L50.8657 140.171L58.4168 141.098Z" fill="white"/>
<path d="M83.3853 141.371L77.927 128.189L82.1484 126.456L90.6991 139.279L83.3853 141.371Z" fill="white"/>
<path d="M70.9076 20.4758C70.9076 20.4758 69.2392 23.5034 67.6499 24.8626C68.5129 25.9054 70.2316 25.704 70.2316 25.704L70.9076 20.4758Z" fill="#BA4D3C"/>
<path d="M72.4959 29.5651H72.5534C74.1846 29.7012 75.806 29.207 77.084 28.1844C77.1104 28.1575 77.1251 28.1213 77.1251 28.0837C77.1251 28.046 77.1104 28.0099 77.084 27.983C77.0572 27.9567 77.021 27.9419 76.9833 27.9419C76.9457 27.9419 76.9096 27.9567 76.8827 27.983C75.6591 28.9449 74.1199 29.4143 72.5678 29.2991C72.537 29.2975 72.5065 29.3058 72.4808 29.3229C72.4551 29.3399 72.4355 29.3648 72.4251 29.3938C72.4146 29.4228 72.4137 29.4545 72.4226 29.484C72.4314 29.5136 72.4496 29.5395 72.4743 29.5579L72.4959 29.5651Z" fill="#263238"/>
<path d="M80.7176 16.9158C80.7583 16.9384 80.8041 16.9503 80.8507 16.9503C80.8972 16.9503 80.943 16.9384 80.9837 16.9158C81.015 16.896 81.042 16.8703 81.0633 16.84C81.0845 16.8098 81.0996 16.7756 81.1076 16.7396C81.1156 16.7035 81.1164 16.6661 81.11 16.6297C81.1035 16.5933 81.0899 16.5586 81.07 16.5274C80.7294 15.9493 80.2538 15.4622 79.684 15.1078C79.1142 14.7534 78.4671 14.5422 77.7979 14.4922C77.7578 14.4858 77.7168 14.4881 77.6776 14.499C77.6385 14.5099 77.6022 14.5292 77.5713 14.5556C77.5404 14.5819 77.5155 14.6146 77.4985 14.6515C77.4815 14.6884 77.4727 14.7285 77.4727 14.7691C77.4727 14.8097 77.4815 14.8499 77.4985 14.8867C77.5155 14.9236 77.5404 14.9564 77.5713 14.9827C77.6022 15.009 77.6385 15.0283 77.6776 15.0392C77.7168 15.0502 77.7578 15.0525 77.7979 15.046C78.3731 15.1003 78.9272 15.2903 79.4148 15.6003C79.9023 15.9103 80.3094 16.3316 80.6026 16.8295C80.6338 16.8667 80.6731 16.8962 80.7176 16.9158Z" fill="#263238"/>
<path d="M74.4393 19.4392C74.3802 19.4275 74.3188 19.4351 74.2643 19.461C74.2099 19.4869 74.1652 19.5296 74.1369 19.5829C74.1087 19.6362 74.0984 19.6972 74.1075 19.7568C74.1166 19.8164 74.1447 19.8715 74.1876 19.9138C74.6535 20.3972 75.228 20.7623 75.8635 20.9787C76.4989 21.1951 77.1769 21.2566 77.8409 21.158C77.9138 21.1408 77.9771 21.0959 78.0174 21.0328C78.0576 20.9696 78.0717 20.8933 78.0566 20.82C78.0411 20.7477 77.9976 20.6844 77.9357 20.644C77.8737 20.6036 77.7983 20.5893 77.7258 20.6042C77.1534 20.6865 76.5695 20.6309 76.0229 20.442C75.4763 20.2532 74.9827 19.9365 74.5832 19.5183C74.5439 19.4785 74.4939 19.451 74.4393 19.4392Z" fill="#263238"/>
<path d="M64.5493 18.4178C64.5047 18.4071 64.4581 18.408 64.414 18.4206C64.3699 18.4332 64.3298 18.457 64.2976 18.4897C64.2448 18.5435 64.2153 18.6158 64.2153 18.6911C64.2153 18.7663 64.2448 18.8386 64.2976 18.8924C64.7634 19.3755 65.3382 19.7398 65.9738 19.9551C66.6094 20.1703 67.2874 20.23 67.9508 20.1293C68.0231 20.1138 68.0864 20.0703 68.1268 20.0084C68.1672 19.9464 68.1815 19.871 68.1666 19.7985C68.1494 19.7257 68.1045 19.6623 68.0414 19.6221C67.9782 19.5818 67.9019 19.5677 67.8286 19.5828C67.2566 19.666 66.6729 19.6101 66.1271 19.4199C65.5813 19.2296 65.0894 18.9105 64.6931 18.4897C64.6525 18.4532 64.6028 18.4283 64.5493 18.4178Z" fill="#263238"/>
<path d="M65.3706 14.1609C65.4141 14.1869 65.4638 14.2006 65.5144 14.2006C65.5651 14.2006 65.6148 14.1869 65.6582 14.1609C66.102 13.7879 66.6293 13.5277 67.1953 13.4025C67.7613 13.2773 68.3491 13.2908 68.9088 13.4418C68.9794 13.4651 69.0563 13.4601 69.1234 13.4279C69.1904 13.3957 69.2424 13.3388 69.2684 13.2692C69.2809 13.2343 69.2863 13.1972 69.2844 13.1601C69.2824 13.1231 69.2732 13.0868 69.2571 13.0534C69.2411 13.0199 69.2186 12.99 69.1909 12.9653C69.1632 12.9406 69.1308 12.9217 69.0958 12.9096C68.4491 12.7276 67.7682 12.7032 67.11 12.8383C66.4519 12.9734 65.8358 13.2642 65.3131 13.6863C65.2836 13.7088 65.2589 13.737 65.2405 13.7691C65.222 13.8013 65.2101 13.8368 65.2054 13.8735C65.2007 13.9103 65.2033 13.9477 65.2132 13.9834C65.223 14.0192 65.2399 14.0526 65.2627 14.0818C65.2904 14.118 65.3278 14.1454 65.3706 14.1609Z" fill="#263238"/>
<path d="M95.8696 105.513L96.1717 108.879C96.3011 109.145 95.9919 109.411 95.5604 109.411H57.46C57.122 109.411 56.8415 109.246 56.8199 109.03L56.4819 105.657C56.4819 105.427 56.7552 105.226 57.122 105.226H95.2368C95.3584 105.212 95.4816 105.231 95.593 105.282C95.7045 105.333 95.8001 105.413 95.8696 105.513Z" fill="white"/>
<path opacity="0.3" d="M95.8696 105.513L96.1717 108.879C96.3011 109.145 95.9919 109.411 95.5604 109.411H57.46C57.122 109.411 56.8415 109.246 56.8199 109.03L56.4819 105.657C56.4819 105.427 56.7552 105.226 57.122 105.226H95.2368C95.3584 105.212 95.4816 105.231 95.593 105.282C95.7045 105.333 95.8001 105.413 95.8696 105.513Z" fill="black"/>
<path d="M90.7499 109.78H91.771C91.9724 109.78 92.1306 109.672 92.1162 109.542L91.6344 105.163C91.6344 105.033 91.4474 104.933 91.2389 104.933H90.2177C90.0163 104.933 89.8581 105.033 89.8725 105.163L90.3543 109.542C90.3687 109.672 90.5413 109.78 90.7499 109.78Z" fill="#263238"/>
<path d="M60.3358 109.78H61.357C61.5583 109.78 61.7094 109.672 61.695 109.542L61.2203 105.163C61.2203 105.033 61.0262 104.933 60.8248 104.933H59.8036C59.6023 104.933 59.444 105.033 59.4584 105.163L59.9403 109.542C59.9546 109.672 60.1272 109.78 60.3358 109.78Z" fill="#263238"/>
<path d="M75.5386 109.78H76.5598C76.7683 109.78 76.9194 109.672 76.905 109.542L76.4303 105.163C76.4303 105.033 76.2362 104.933 76.0348 104.933H75.0136C74.8051 104.933 74.654 105.033 74.6684 105.163L75.1431 109.542C75.1575 109.672 75.3372 109.78 75.5386 109.78Z" fill="#263238"/>
<path d="M105.327 62.6458L108.412 79.2724C108.937 82.034 109.469 84.7883 110.03 87.5139C110.304 88.873 110.62 90.2179 110.915 91.5483L111.389 93.5116L111.85 95.1944C112.142 95.9476 112.596 96.6276 113.18 97.1864C113.994 98.0167 114.882 98.7702 115.834 99.4373C117.994 100.93 120.269 102.25 122.637 103.385C125.068 104.594 127.606 105.694 130.174 106.744C132.741 107.794 135.395 108.779 137.969 109.707L136.869 114.367C131.052 113.483 125.334 112.038 119.796 110.052C116.902 109.028 114.108 107.742 111.447 106.212C109.994 105.36 108.626 104.37 107.362 103.256C105.811 101.92 104.582 100.251 103.767 98.373L103.601 97.9631L103.493 97.6538L103.299 97.1073L102.918 95.9998L102.249 93.8424C101.827 92.4041 101.436 90.9898 101.077 89.5994C100.334 86.7899 99.6602 83.9805 99.0561 81.171C97.8048 75.5473 96.7333 69.9451 95.8127 64.2566L105.327 62.6458Z" fill="#CE7A63"/>
<path d="M101.983 51.4922C105.758 52.6356 110.433 64.7748 110.433 64.7748L95.7911 75.2456C95.7911 75.2456 90.3112 65.2494 91.9005 60.3736C93.5474 55.2964 97.6753 50.1833 101.983 51.4922Z" fill="white"/>
<path d="M136.098 109.953L144.893 107.723L140.7 116.166C140.7 116.166 134.753 116.425 132.79 113.11L136.098 109.953Z" fill="#CE7A63"/>
<path d="M152 111.038L148.11 117.92L140.702 116.273L144.895 107.831L152 111.038Z" fill="#CE7A63"/>
</svg>
