<svg width="37" height="37" viewBox="0 0 37 37" fill="none" xmlns="http://www.w3.org/2000/svg">
<g clip-path="url(#clip0_14_94)">
<circle cx="18.5" cy="18.5" r="18.5" fill="white"/>
<path fill-rule="evenodd" clip-rule="evenodd" d="M0 18.5C0 13.5935 1.9491 8.88795 5.41852 5.41852C8.88795 1.9491 13.5935 0 18.5 0C23.4065 0 28.1121 1.9491 31.5815 5.41852C35.0509 8.88795 37 13.5935 37 18.5C37 23.4065 35.0509 28.1121 31.5815 31.5815C28.1121 35.0509 23.4065 37 18.5 37C13.5935 37 8.88795 35.0509 5.41852 31.5815C1.9491 28.1121 0 23.4065 0 18.5ZM24.6667 12.3333H27.1333V24.6667H24.6667V12.3333ZM11.7117 12.4961C11.5242 12.389 11.3118 12.333 11.0958 12.3337C10.8799 12.3345 10.6679 12.3919 10.481 12.5003C10.2942 12.6087 10.1392 12.7642 10.0313 12.9514C9.92352 13.1385 9.86674 13.3507 9.86667 13.5667V23.4333C9.86674 23.6493 9.92352 23.8615 10.0313 24.0486C10.1392 24.2358 10.2942 24.3913 10.481 24.4997C10.6679 24.6081 10.8799 24.6655 11.0958 24.6663C11.3118 24.667 11.5242 24.611 11.7117 24.5039L20.3451 19.5705C20.5337 19.4626 20.6905 19.3068 20.7995 19.1188C20.9085 18.9308 20.966 18.7173 20.966 18.5C20.966 18.2827 20.9085 18.0692 20.7995 17.8812C20.6905 17.6932 20.5337 17.5374 20.3451 17.4295L11.7117 12.4961Z" fill="url(#paint0_linear_14_94)"/>
</g>
<defs>
<linearGradient id="paint0_linear_14_94" x1="18.5" y1="0" x2="18.5" y2="37" gradientUnits="userSpaceOnUse">
<stop stop-color="#77EA91"/>
<stop offset="1" stop-color="#23A340"/>
</linearGradient>
<clipPath id="clip0_14_94">
<rect width="37" height="37" fill="white"/>
</clipPath>
</defs>
</svg>
