<svg width="37" height="37" viewBox="0 0 37 37" fill="none" xmlns="http://www.w3.org/2000/svg">
<g clip-path="url(#clip0_573_763)">
<path d="M37 32.8889C37 33.9792 36.5669 35.0249 35.7959 35.7959C35.0249 36.5669 33.9792 37 32.8889 37H4.11111C3.02078 37 1.9751 36.5669 1.20412 35.7959C0.433134 35.0249 0 33.9792 0 32.8889V4.11111C0 3.02078 0.433134 1.9751 1.20412 1.20412C1.9751 0.433134 3.02078 0 4.11111 0L32.8889 0C33.9792 0 35.0249 0.433134 35.7959 1.20412C36.5669 1.9751 37 3.02078 37 4.11111V32.8889Z" fill="url(#paint0_radial_573_763)"/>
<path d="M7.40002 18.8027C7.40002 15.286 9.76705 12.5801 13.2161 12.5801C16.6152 12.5801 19.033 15.3698 19.033 18.8027C19.033 22.3032 16.6828 25.0253 13.2161 25.0253C9.78396 25.0253 7.40002 22.3032 7.40002 18.8027ZM16.3954 18.8027C16.3954 16.7569 15.3303 14.914 13.2161 14.914C11.1027 14.914 10.0376 16.7569 10.0376 18.8027C10.0376 20.8661 11.0689 22.6921 13.2161 22.6921C15.3634 22.6921 16.3954 20.8661 16.3954 18.8027ZM20.0798 13.9327C20.0798 13.2395 20.5877 12.6815 21.3486 12.6815C22.0749 12.6815 22.6166 13.1549 22.6166 13.9327V17.5853L26.7765 13.1549C26.9625 12.952 27.283 12.6815 27.7564 12.6815C28.3989 12.6815 29.0083 13.1718 29.0083 13.8988C29.0083 14.3384 28.737 14.6935 28.1798 15.2514L24.9836 18.3962L28.8899 22.4716C29.2957 22.8773 29.6 23.2486 29.6 23.7565C29.6 24.5512 28.9738 24.9224 28.2806 24.9224C27.7909 24.9224 27.4704 24.6357 26.9956 24.1278L22.6166 19.393V23.7051C22.6166 24.3645 22.1094 24.9224 21.3486 24.9224C20.6215 24.9224 20.0798 24.449 20.0798 23.7051V13.9327Z" fill="white"/>
</g>
<defs>
<radialGradient id="paint0_radial_573_763" cx="0" cy="0" r="1" gradientUnits="userSpaceOnUse" gradientTransform="translate(18.5 18.5) rotate(90) scale(18.5)">
<stop stop-color="#B5DFFF"/>
<stop offset="1" stop-color="#3B88C3"/>
</radialGradient>
<clipPath id="clip0_573_763">
<rect width="37" height="37" rx="18.5" fill="white"/>
</clipPath>
</defs>
</svg>
