<svg width="16" height="16" viewBox="0 0 16 16" fill="none" xmlns="http://www.w3.org/2000/svg">
<path d="M14.2214 1.35476C12.4364 -0.430276 10.7081 -0.472776 8.88056 1.35476L7.76136 2.47386C7.66226 2.57306 7.63396 2.71476 7.66226 2.84226C8.35646 5.27886 10.2973 7.21976 12.7339 7.91386C12.7623 7.92806 12.8048 7.92806 12.8473 7.92806C12.9464 7.92806 13.0456 7.88556 13.1164 7.81476L14.2214 6.70976C15.1281 5.80306 15.5673 4.93886 15.5673 4.06056C15.5673 3.13976 15.1281 2.26136 14.2214 1.35476Z" fill="white"/>
<path d="M11.0907 8.73562C10.8215 8.60812 10.5665 8.48062 10.3257 8.32482C10.1273 8.21142 9.92908 8.08392 9.74488 7.94232C9.58908 7.84312 9.40478 7.70142 9.22068 7.54562C9.19228 7.53142 9.13568 7.48892 9.06488 7.40392C8.76738 7.14892 8.42728 6.80892 8.11568 6.45482C8.08728 6.44062 8.04488 6.36982 7.98818 6.28482C7.88898 6.17142 7.74738 5.98732 7.60568 5.78892C7.49238 5.64732 7.36488 5.44892 7.25148 5.25062C7.10988 5.00982 6.96818 4.75482 6.85488 4.49982C6.72738 4.21642 6.62818 3.96142 6.52898 3.70642L1.18818 9.04732C0.833978 9.40142 0.508189 10.0531 0.437349 10.5348L0.0265087 13.4814C-0.0726613 14.1048 0.111488 14.6856 0.493988 15.0823C0.819778 15.4081 1.27318 15.5781 1.76898 15.5781C1.88238 15.5781 1.98148 15.5639 2.09478 15.5498L5.04148 15.1389C5.52318 15.0681 6.17488 14.7423 6.52898 14.3881L11.8699 9.04732C11.6149 8.94812 11.3599 8.84892 11.0907 8.73562Z" fill="white"/>
</svg>
