<svg width="37" height="37" viewBox="0 0 37 37" fill="none" xmlns="http://www.w3.org/2000/svg">
<circle cx="18.5" cy="18.5" r="18.5" fill="white"/>
<path d="M18.5 37C8.28245 37 0 28.7176 0 18.5C0 8.28245 8.28245 0 18.5 0C28.7176 0 37 8.28245 37 18.5C37 28.7176 28.7176 37 18.5 37ZM27.417 27.8906C29.775 25.6478 31.2022 22.5994 31.4144 19.352C31.6267 16.1047 30.6086 12.8964 28.5627 10.3657C26.5167 7.83497 23.5929 6.16732 20.3732 5.6946C17.1534 5.22188 13.8737 5.97873 11.1866 7.81456C8.49958 9.65039 6.60223 12.4306 5.87214 15.6019C5.14204 18.7733 5.63273 22.1032 7.24655 24.9292C8.86037 27.7552 11.479 29.8699 14.5814 30.8527C17.6837 31.8354 21.0424 31.6141 23.989 30.2327L22.187 26.986C20.3609 27.7796 18.3274 27.9629 16.3887 27.5084C14.4501 27.0539 12.7099 25.986 11.4268 24.4634C10.1436 22.9408 9.38604 21.0448 9.26664 19.0572C9.14725 17.0696 9.67241 15.0965 10.7641 13.4313C11.8557 11.766 13.4556 10.4975 15.3259 9.8142C17.1961 9.13093 19.237 9.0694 21.145 9.63878C23.0531 10.2081 24.7264 11.378 25.9164 12.9745C27.1064 14.571 27.7495 16.5088 27.75 18.5H22.2L27.417 27.8906Z" fill="url(#paint0_linear_513_892)"/>
<defs>
<linearGradient id="paint0_linear_513_892" x1="18.5" y1="0" x2="18.5" y2="37" gradientUnits="userSpaceOnUse">
<stop stop-color="#FFAB00" stop-opacity="0.64"/>
<stop offset="1" stop-color="#FFAB00"/>
</linearGradient>
</defs>
</svg>
